<svg xmlns="http://www.w3.org/2000/svg" viewBox="0 0 384.97 384.97"><g fill="#FFF"><path d="M192.485 0C86.185 0 0 86.173 0 192.485c0 106.3 86.185 192.485 192.485 192.485 106.312 0 192.485-86.185 192.485-192.485C384.97 86.173 298.797 0 192.485 0zm0 360.909c-92.874 0-168.424-75.55-168.424-168.424S99.611 24.061 192.485 24.061s168.797 75.55 168.797 168.424-75.923 168.424-168.797 168.424z"/><path d="M268.276 149.092l-75.61 74.528-75.61-74.54c-4.74-4.704-12.439-4.704-17.191 0-4.74 4.704-4.74 12.319 0 17.011l84.2 83.009c4.62 4.572 12.56 4.584 17.191 0l84.2-82.997c4.74-4.704 4.74-12.319 0-17.011-4.741-4.692-12.428-4.692-17.18 0z"/></g></svg>